<svg xmlns="http://www.w3.org/2000/svg" viewBox="-1.5 -1.5 104 104"><g transform="translate(0, 0)"><rect width="10" height="10" rx="2" ry="2" fill="#ffc800"></rect><rect width="10" height="10" y="13" rx="2" ry="2" fill="#800000"></rect><rect width="10" height="10" y="26" rx="2" ry="2" fill="#ffc800"></rect><rect width="10" height="10" y="39" rx="2" ry="2" fill="#800000"></rect><rect width="10" height="10" y="52" rx="2" ry="2" fill="#ffc800"></rect><rect width="10" height="10" y="65" rx="2" ry="2" fill="#ffc800"></rect><rect width="10" height="10" y="78" rx="2" ry="2" fill="#800000"></rect><rect width="10" height="10" y="91" rx="2" ry="2" fill="#ffc800"></rect></g><g transform="translate(13, 0)"><rect width="10" height="10" rx="2" ry="2" fill="#800000"></rect><rect width="10" height="10" y="13" rx="2" ry="2" fill="#ffc800"></rect><rect width="10" height="10" y="26" rx="2" ry="2" fill="#800000"></rect><rect width="10" height="10" y="39" rx="2" ry="2" fill="#ffc800"></rect><rect width="10" height="10" y="52" rx="2" ry="2" fill="#800000"></rect><rect width="10" height="10" y="65" rx="2" ry="2" fill="#ffc800"></rect><rect width="10" height="10" y="78" rx="2" ry="2" fill="#ffc800"></rect><rect width="10" height="10" y="91" rx="2" ry="2" fill="#ffc800"></rect></g><g transform="translate(26, 0)"><rect width="10" height="10" rx="2" ry="2" fill="#800000"></rect><rect width="10" height="10" y="13" rx="2" ry="2" fill="#800000"></rect><rect width="10" height="10" y="26" rx="2" ry="2" fill="#800000"></rect><rect width="10" height="10" y="39" rx="2" ry="2" fill="#ffc800"></rect><rect width="10" height="10" y="52" rx="2" ry="2" fill="#800000"></rect><rect width="10" height="10" y="65" rx="2" ry="2" fill="#ffc800"></rect><rect width="10" height="10" y="78" rx="2" ry="2" fill="#800000"></rect><rect width="10" height="10" y="91" rx="2" ry="2" fill="#ffc800"></rect></g><g transform="translate(39, 0)"><rect width="10" height="10" rx="2" ry="2" fill="#ffc800"></rect><rect width="10" height="10" y="13" rx="2" ry="2" fill="#800000"></rect><rect width="10" height="10" y="26" rx="2" ry="2" fill="#ffc800"></rect><rect width="10" height="10" y="39" rx="2" ry="2" fill="#ffc800"></rect><rect width="10" height="10" y="52" rx="2" ry="2" fill="#ffc800"></rect><rect width="10" height="10" y="65" rx="2" ry="2" fill="#800000"></rect><rect width="10" height="10" y="78" rx="2" ry="2" fill="#ffc800"></rect><rect width="10" height="10" y="91" rx="2" ry="2" fill="#800000"></rect></g><g transform="translate(52, 0)"><rect width="10" height="10" rx="2" ry="2" fill="#ffc800"></rect><rect width="10" height="10" y="13" rx="2" ry="2" fill="#800000"></rect><rect width="10" height="10" y="26" rx="2" ry="2" fill="#ffc800"></rect><rect width="10" height="10" y="39" rx="2" ry="2" fill="#800000"></rect><rect width="10" height="10" y="52" rx="2" ry="2" fill="#ffc800"></rect><rect width="10" height="10" y="65" rx="2" ry="2" fill="#800000"></rect><rect width="10" height="10" y="78" rx="2" ry="2" fill="#800000"></rect><rect width="10" height="10" y="91" rx="2" ry="2" fill="#800000"></rect></g><g transform="translate(65, 0)"><rect width="10" height="10" rx="2" ry="2" fill="#ffc800"></rect><rect width="10" height="10" y="13" rx="2" ry="2" fill="#ffc800"></rect><rect width="10" height="10" y="26" rx="2" ry="2" fill="#800000"></rect><rect width="10" height="10" y="39" rx="2" ry="2" fill="#800000"></rect><rect width="10" height="10" y="52" rx="2" ry="2" fill="#800000"></rect><rect width="10" height="10" y="65" rx="2" ry="2" fill="#ffc800"></rect><rect width="10" height="10" y="78" rx="2" ry="2" fill="#800000"></rect><rect width="10" height="10" y="91" rx="2" ry="2" fill="#ffc800"></rect></g><g transform="translate(78, 0)"><rect width="10" height="10" rx="2" ry="2" fill="#800000"></rect><rect width="10" height="10" y="13" rx="2" ry="2" fill="#ffc800"></rect><rect width="10" height="10" y="26" rx="2" ry="2" fill="#ffc800"></rect><rect width="10" height="10" y="39" rx="2" ry="2" fill="#800000"></rect><rect width="10" height="10" y="52" rx="2" ry="2" fill="#ffc800"></rect><rect width="10" height="10" y="65" rx="2" ry="2" fill="#ffc800"></rect><rect width="10" height="10" y="78" rx="2" ry="2" fill="#ffc800"></rect><rect width="10" height="10" y="91" rx="2" ry="2" fill="#ffc800"></rect></g><g transform="translate(91, 0)"><rect width="10" height="10" rx="2" ry="2" fill="#800000"></rect><rect width="10" height="10" y="13" rx="2" ry="2" fill="#ffc800"></rect><rect width="10" height="10" y="26" rx="2" ry="2" fill="#800000"></rect><rect width="10" height="10" y="39" rx="2" ry="2" fill="#800000"></rect><rect width="10" height="10" y="52" rx="2" ry="2" fill="#800000"></rect><rect width="10" height="10" y="65" rx="2" ry="2" fill="#ffc800"></rect><rect width="10" height="10" y="78" rx="2" ry="2" fill="#800000"></rect><rect width="10" height="10" y="91" rx="2" ry="2" fill="#ffc800"></rect></g></svg>